<svg xmlns="http://www.w3.org/2000/svg" viewBox="0 0 1233.18 384.11"><defs><style>.cls-1,.cls-15{fill:#231f20;}.cls-1,.cls-16,.cls-2,.cls-6{stroke:#231f20;}.cls-2,.cls-6,.cls-7{fill:#fff;}.cls-3{fill:#45a2d7;}.cls-4{fill:#43a3d6;}.cls-5{fill:#9bc961;}.cls-6{stroke-width:1.11px;}.cls-8{fill:#eb2027;}.cls-9{fill:#e96f60;}.cls-10{fill:#fccc61;}.cls-11{fill:#76b9e1;}.cls-12{fill:#fdba12;}.cls-13{fill:#0084c7;}.cls-14{fill:#78ba43;}.cls-15{fill-rule:evenodd;}.cls-16{fill:none;stroke-width:4px;}</style></defs><title>logo-black color</title><g id="Layer_2" data-name="Layer 2"><g id="Icon_black" data-name="Icon/black"><g id="logo_black_color" data-name="logo/black color"><path class="cls-1" d="M191.85.91C86.17.91.5,86.58.5,192.26S86.17,383.61,191.85,383.61H315c38.25,0,68.22-29.3,68.22-66.37V192.34C383,86.36,297.39.91,191.85.91Z"/><path class="cls-2" d="M129.42,130.75s-21.1-36.62,10.87-72.33c21.63-24.17,63.63-23.67,85.63-3.17,29,27,14.55,50.79,26.5,64.5,17,19.5,35,.5,65,26.76,27,23.63,24.58,71.27-2.5,93.74-26.5,22-44.5,6.5-60,22s-1.19,38.36-24,62c-27,28-68.5,28-95-3.5-24.25-28.83-6.5-66.5-6.5-66.5s-27,3.5-48.5-17c-22.12-21.09-29.3-60.69,0-90Q98.43,129.76,129.42,130.75Z"/><path class="cls-3" d="M234.48,192.09c-1.06,11.25-1.46,22.8-14.33,35.86l19.26,19.25.4-.41c22.53-22.52,41-6.15,61.37-23.51a32.3,32.3,0,0,0,2.74-2.41,33.42,33.42,0,0,0,3-3.5l.14-.19.11-.14a38.26,38.26,0,0,0,7.8-19.88,42.76,42.76,0,0,0,.38-5.07Z"/><path class="cls-4" d="M234.53,191.64c0,.15,0,.3-.05.45h80.88a38.7,38.7,0,0,0-8.73-25.54,32.07,32.07,0,0,0-2.71-3.13,32.92,32.92,0,0,0-2.84-2.5c-20.32-17.25-38.68-1.08-61.75-23.88L220.07,156.3l.48.46C233.08,169.3,233.57,180.58,234.53,191.64Z"/><path class="cls-5" d="M220,228l-.32.33c-23.73,23.72-42.5,4.39-64,25.9-14,14-16,40.67.05,56.71,14.58,14.59,39.38,18.51,57.38.51,21.28-21.28,2.59-40.22,26.15-64.2Z"/><path class="cls-6" d="M323.4,308.77a16.77,16.77,0,0,1,8.06,2.12,14.86,14.86,0,0,1,6.11,6.06,16.48,16.48,0,0,1,2.2,8.21,16.65,16.65,0,0,1-2.15,8.15,15.29,15.29,0,0,1-6.06,6.06,16.47,16.47,0,0,1-16.31,0,15.23,15.23,0,0,1-6.06-6.06,16.47,16.47,0,0,1-2.18-8.15,16.68,16.68,0,0,1,2.2-8.21,15.05,15.05,0,0,1,6.14-6.06A16.82,16.82,0,0,1,323.4,308.77Zm0,2.72a13.87,13.87,0,0,0-6.71,1.76,12.7,12.7,0,0,0-5.11,5.06,13.66,13.66,0,0,0-.05,13.64,13,13,0,0,0,5.08,5.05,13.59,13.59,0,0,0,13.59,0,12.8,12.8,0,0,0,5.06-5.05,13.72,13.72,0,0,0,0-13.64,12.64,12.64,0,0,0-5.11-5.06A14,14,0,0,0,323.4,311.49Zm-7.17,22.73V316.58h6a15,15,0,0,1,4.49.49,4.33,4.33,0,0,1,2.21,1.72,4.42,4.42,0,0,1,.83,2.58,4.65,4.65,0,0,1-1.38,3.36,5.5,5.5,0,0,1-3.66,1.61,4.81,4.81,0,0,1,1.5.93,19.86,19.86,0,0,1,2.6,3.5l2.16,3.45h-3.47L326,331.44a14.42,14.42,0,0,0-3-4.11,3.73,3.73,0,0,0-2.28-.6h-1.68v7.49Zm2.83-9.92h3.45a5.49,5.49,0,0,0,3.38-.75,2.37,2.37,0,0,0,.91-1.95,2.4,2.4,0,0,0-.44-1.4,2.62,2.62,0,0,0-1.21-.92,8.92,8.92,0,0,0-2.85-.31h-3.24Z"/><path class="cls-7" d="M323.4,308.77a16.77,16.77,0,0,1,8.06,2.12,14.86,14.86,0,0,1,6.11,6.06,16.48,16.48,0,0,1,2.2,8.21,16.65,16.65,0,0,1-2.15,8.15,15.29,15.29,0,0,1-6.06,6.06,16.47,16.47,0,0,1-16.31,0,15.23,15.23,0,0,1-6.06-6.06,16.47,16.47,0,0,1-2.18-8.15,16.68,16.68,0,0,1,2.2-8.21,15.05,15.05,0,0,1,6.14-6.06A16.82,16.82,0,0,1,323.4,308.77Zm0,2.72a13.87,13.87,0,0,0-6.71,1.76,12.7,12.7,0,0,0-5.11,5.06,13.66,13.66,0,0,0-.05,13.64,13,13,0,0,0,5.08,5.05,13.59,13.59,0,0,0,13.59,0,12.8,12.8,0,0,0,5.06-5.05,13.72,13.72,0,0,0,0-13.64,12.64,12.64,0,0,0-5.11-5.06A14,14,0,0,0,323.4,311.49Zm-7.17,22.73V316.58h6a15,15,0,0,1,4.49.49,4.33,4.33,0,0,1,2.21,1.72,4.42,4.42,0,0,1,.83,2.58,4.65,4.65,0,0,1-1.38,3.36,5.5,5.5,0,0,1-3.66,1.61,4.81,4.81,0,0,1,1.5.93,19.86,19.86,0,0,1,2.6,3.5l2.16,3.45h-3.47L326,331.44a14.42,14.42,0,0,0-3-4.11,3.73,3.73,0,0,0-2.28-.6h-1.68v7.49Zm2.83-9.92h3.45a5.49,5.49,0,0,0,3.38-.75,2.37,2.37,0,0,0,.91-1.95,2.4,2.4,0,0,0-.44-1.4,2.62,2.62,0,0,0-1.21-.92,8.92,8.92,0,0,0-2.85-.31h-3.24Z"/><path class="cls-8" d="M82.74,192.08a40.55,40.55,0,1,0,40.55-40.55,40.55,40.55,0,0,0-40.55,40.55"/><path class="cls-9" d="M95.3,162.76a40.51,40.51,0,0,0,0,58.65l29.32-29.33Z"/><path class="cls-10" d="M220.07,156.3,239.33,137l-.27-.26c-23.73-23.72-4.39-42.49-25.9-64-7.23-7.23-17.83-11.26-28.6-11.26a39.41,39.41,0,0,0-28.12,11.31c-14.58,14.59-18.5,39.38-.5,57.38C177.2,151.48,196.12,132.84,220.07,156.3Z"/><path class="cls-11" d="M303.68,221.09a2.5,2.5,0,0,1,.24-.22,33.42,33.42,0,0,0,3-3.5l.14-.19.11-.14a38.26,38.26,0,0,0,7.8-19.88,39.32,39.32,0,0,0-8.35-30.61,32.07,32.07,0,0,0-2.71-3.13l-.31-.28-28.94,28.94Z"/><path class="cls-12" d="M219.77,156.3l9.59-9.6L155.82,73.16c-14.32,14.63-18.06,39.19-.19,57.05C176.89,151.48,195.82,132.84,219.77,156.3Z"/><path class="cls-13" d="M220.55,156.76c12.53,12.54,13,23.82,14,34.88-1.1,11.39-1.33,23.08-14.38,36.31l9.52,9.52,45.38-45.38L229.67,146.7l-9.6,9.6Z"/><path class="cls-14" d="M219.85,228l-.33.33c-23.72,23.72-42.49,4.39-64,25.9-14,14-16,40.67,0,56.71.06.07.13.12.19.18l73.61-73.6Z"/><path class="cls-15" d="M1000.33,81h127.23a75.85,75.85,0,0,1,28.59,5.12,65.87,65.87,0,0,1,21.81,14,60.93,60.93,0,0,1,13.88,20.66,66.11,66.11,0,0,1,4.79,25.28q0,20.82-8.75,36t-28.59,23.13v.66a39.87,39.87,0,0,1,15.86,8.1,44.85,44.85,0,0,1,10.25,12.89,60,60,0,0,1,5.78,16.36,141.68,141.68,0,0,1,2.48,17.84q.33,5.63.66,13.22t1.16,15.53a104.4,104.4,0,0,0,2.64,15,34.68,34.68,0,0,0,5.45,12.06h-51.88q-4.31-11.24-5.29-26.77t-3-29.74q-2.65-18.51-11.24-27.1t-28.09-8.59h-51.89v92.2h-51.88Zm51.88,106.74h56.85q17.84,0,26.76-7.93t8.93-25.78q0-17.17-8.93-24.95t-26.76-7.76h-56.85ZM779.89,81H886.31q22.14,0,37.67,6.44t25.29,17a65.55,65.55,0,0,1,14.21,24.13,90.15,90.15,0,0,1,0,56,65.31,65.31,0,0,1-14.21,24.29q-9.75,10.59-25.29,17t-37.67,6.45H831.78v84.6H779.89Zm51.89,111H872.1a108.76,108.76,0,0,0,17.18-1.32,40,40,0,0,0,14.54-5.12,27.9,27.9,0,0,0,10.08-10.75q3.81-6.93,3.8-18.17t-3.8-18.18a27.8,27.8,0,0,0-10.08-10.74,40,40,0,0,0-14.54-5.12,108.76,108.76,0,0,0-17.18-1.32H831.78ZM541.28,81H668.52a75.83,75.83,0,0,1,28.58,5.12,65.81,65.81,0,0,1,21.82,14,61.08,61.08,0,0,1,13.88,20.66,66.3,66.3,0,0,1,4.79,25.28q0,20.82-8.76,36t-28.59,23.13v.66a40,40,0,0,1,15.87,8.1,44.81,44.81,0,0,1,10.24,12.89,60,60,0,0,1,5.79,16.36,141.64,141.64,0,0,1,2.47,17.84q.33,5.63.67,13.22t1.15,15.53a103,103,0,0,0,2.65,15,34.68,34.68,0,0,0,5.45,12.06H692.64q-4.29-11.24-5.29-26.77t-3-29.74q-2.64-18.51-11.24-27.1t-28.09-8.59H593.17v92.2H541.28Zm51.89,106.74H650q17.85,0,26.77-7.93T685.7,154q0-17.17-8.92-24.95T650,121.29H593.17Z"/><line class="cls-16" x1="462.56" x2="462.56" y2="382.7"/><path class="cls-15" d="M1216.43,79.57a17.13,17.13,0,0,1,8.25,2.17,15.3,15.3,0,0,1,6.25,6.2,16.82,16.82,0,0,1,0,16.74,15.61,15.61,0,0,1-6.19,6.21,16.86,16.86,0,0,1-16.69,0,15.66,15.66,0,0,1-6.21-6.21,16.88,16.88,0,0,1-2.23-8.34,17.1,17.1,0,0,1,2.25-8.4,15.45,15.45,0,0,1,6.29-6.2A17.12,17.12,0,0,1,1216.43,79.57Zm0,2.78a14.2,14.2,0,0,0-6.87,1.81,12.89,12.89,0,0,0-5.23,5.17,14,14,0,0,0,0,14,13.19,13.19,0,0,0,5.2,5.17,13.93,13.93,0,0,0,13.91,0,13,13,0,0,0,5.17-5.17,14.11,14.11,0,0,0,1.85-7,14.36,14.36,0,0,0-1.87-7,13,13,0,0,0-5.24-5.17A14.26,14.26,0,0,0,1216.43,82.35Zm-7.35,23.26v-18h6.2a14.83,14.83,0,0,1,4.59.5,4.35,4.35,0,0,1,2.27,1.75,4.56,4.56,0,0,1,.85,2.64,4.8,4.8,0,0,1-1.41,3.44,5.65,5.65,0,0,1-3.75,1.65,4.88,4.88,0,0,1,1.54,1,20.92,20.92,0,0,1,2.66,3.58l2.2,3.53h-3.55l-1.6-2.84a14.94,14.94,0,0,0-3-4.21,3.81,3.81,0,0,0-2.34-.62H1212v7.67Zm2.9-10.15h3.54a5.74,5.74,0,0,0,3.46-.76,2.44,2.44,0,0,0,.92-2,2.47,2.47,0,0,0-.44-1.43,2.68,2.68,0,0,0-1.24-.94,9,9,0,0,0-2.92-.32H1212Z"/></g></g></g></svg>